<svg width="46" height="46" viewBox="0 0 46 46" fill="none" xmlns="http://www.w3.org/2000/svg">
<path fill-rule="evenodd" clip-rule="evenodd" d="M8.46143 33.6667C8.46143 33.313 8.60288 32.9739 8.85468 32.7239C9.10648 32.4738 9.44799 32.3333 9.80408 32.3333H36.6572C37.0133 32.3333 37.3548 32.4738 37.6066 32.7239C37.8584 32.9739 37.9999 33.313 37.9999 33.6667C37.9999 34.0203 37.8584 34.3594 37.6066 34.6095C37.3548 34.8595 37.0133 35 36.6572 35H9.80408C9.44799 35 9.10648 34.8595 8.85468 34.6095C8.60288 34.3594 8.46143 34.0203 8.46143 33.6667ZM8.46143 23C8.46143 22.6464 8.60288 22.3072 8.85468 22.0572C9.10648 21.8071 9.44799 21.6667 9.80408 21.6667H36.6572C37.0133 21.6667 37.3548 21.8071 37.6066 22.0572C37.8584 22.3072 37.9999 22.6464 37.9999 23C37.9999 23.3536 37.8584 23.6928 37.6066 23.9428C37.3548 24.1929 37.0133 24.3333 36.6572 24.3333H9.80408C9.44799 24.3333 9.10648 24.1929 8.85468 23.9428C8.60288 23.6928 8.46143 23.3536 8.46143 23ZM8.46143 12.3333C8.46143 11.9797 8.60288 11.6406 8.85468 11.3905C9.10648 11.1405 9.44799 11 9.80408 11H36.6572C37.0133 11 37.3548 11.1405 37.6066 11.3905C37.8584 11.6406 37.9999 11.9797 37.9999 12.3333C37.9999 12.687 37.8584 13.0261 37.6066 13.2761C37.3548 13.5262 37.0133 13.6667 36.6572 13.6667H9.80408C9.44799 13.6667 9.10648 13.5262 8.85468 13.2761C8.60288 13.0261 8.46143 12.687 8.46143 12.3333Z" fill="black"/>
</svg>
