<svg width="303" height="60" viewBox="0 0 303 60" fill="none" xmlns="http://www.w3.org/2000/svg">
<g clip-path="url(#clip0_199_1302)">
<path d="M52.3825 32.6497H32.8606V48.4234H55.532V53.2198H26.9272V8.72021H55.2287V13.5167H32.8695V27.8532H52.3914V32.6497H52.3825Z" fill="black"/>
<path d="M94.7276 39.1037C94.1744 43.812 92.4167 47.4447 89.4545 50.0016C86.4923 52.5585 82.5576 53.837 77.6504 53.837C72.3327 53.837 68.0679 51.9502 64.8648 48.1853C61.6617 44.4116 60.0557 39.3682 60.0557 33.0552V28.779C60.0557 24.6438 60.8051 21.0023 62.2952 17.8635C63.7941 14.7246 65.9087 12.3175 68.6478 10.6335C71.3869 8.94944 74.5633 8.11182 78.1768 8.11182C82.9591 8.11182 86.7957 9.43437 89.6865 12.0707C92.5773 14.707 94.2547 18.366 94.7276 23.0303H88.7586C88.2411 19.477 87.1258 16.9024 85.4038 15.3065C83.6818 13.7106 81.2728 12.9171 78.1768 12.9171C74.3848 12.9171 71.4048 14.3014 69.2545 17.0788C67.0953 19.8561 66.0247 23.7973 66.0247 28.92V33.2316C66.0247 38.0633 67.0418 41.9076 69.085 44.7643C71.1282 47.621 73.9833 49.0494 77.6504 49.0494C80.9516 49.0494 83.4855 48.3087 85.2432 46.8363C87.0098 45.355 88.1786 42.7893 88.7586 39.1214H94.7276V39.1037Z" fill="black"/>
<path d="M135.511 32.4116C135.511 36.776 134.771 40.5762 133.281 43.8297C131.791 47.0832 129.694 49.5608 126.973 51.2713C124.252 52.9818 121.075 53.837 117.444 53.837C113.813 53.837 110.752 52.9729 108.013 51.2536C105.274 49.5343 103.142 47.0743 101.625 43.8914C100.108 40.6996 99.3317 37.0053 99.2871 32.8084V29.599C99.2871 25.3227 100.037 21.5402 101.544 18.2602C103.052 14.9803 105.176 12.4674 107.933 10.7217C110.69 8.97589 113.839 8.11182 117.381 8.11182C120.924 8.11182 124.171 8.97589 126.919 10.6952C129.676 12.4145 131.791 14.9098 133.272 18.1809C134.753 21.452 135.503 25.261 135.503 29.599V32.4116H135.511ZM129.605 29.5372C129.605 24.2558 128.534 20.2088 126.384 17.3873C124.243 14.5659 121.236 13.1552 117.381 13.1552C113.527 13.1552 110.672 14.5659 108.522 17.3873C106.362 20.2088 105.256 24.1236 105.194 29.1405V32.4116C105.194 37.5255 106.282 41.5461 108.459 44.4733C110.636 47.4006 113.625 48.8642 117.444 48.8642C121.263 48.8642 124.252 47.4799 126.348 44.7202C128.454 41.9605 129.534 38.0016 129.596 32.8436V29.5461L129.605 29.5372Z" fill="black"/>
<path d="M167.534 39.1919L168.399 45.0641L169.666 39.7739L178.57 8.72021H183.585L192.275 39.7739L193.515 45.1522L194.47 39.1655L201.456 8.72021H207.425L196.504 53.2287H191.088L181.809 20.7996L181.095 17.405L180.382 20.7996L170.763 53.2287H165.348L154.462 8.72021H160.405L167.516 39.1919H167.534Z" fill="black"/>
<path d="M237.395 32.6497H217.873V48.4234H240.544V53.2198H211.931V8.72021H240.232V13.5167H217.873V27.8532H237.395V32.6497Z" fill="black"/>
<path d="M245.121 53.2287V8.72021H259.843C264.732 8.72021 268.408 9.71654 270.871 11.718C273.333 13.7195 274.565 16.6732 274.565 20.5791C274.565 22.66 273.967 24.4939 272.771 26.0986C271.576 27.6945 269.943 28.9377 267.882 29.8106C270.318 30.4807 272.236 31.7592 273.646 33.646C275.055 35.5329 275.769 37.7812 275.769 40.3822C275.769 44.3763 274.458 47.5152 271.843 49.7988C269.22 52.0824 265.526 53.2198 260.735 53.2198H245.112L245.121 53.2287ZM251.063 27.7033H260.03C262.627 27.7033 264.706 27.0597 266.267 25.7724C267.828 24.4851 268.605 22.7393 268.605 20.5351C268.605 18.0839 267.882 16.3029 266.437 15.1919C264.991 14.081 262.796 13.5255 259.852 13.5255H251.063V27.7121V27.7033ZM251.063 32.4116V48.4322H260.869C263.635 48.4322 265.812 47.7268 267.409 46.3073C269.006 44.8877 269.809 42.9392 269.809 40.4528C269.809 35.092 266.856 32.4116 260.958 32.4116H251.063Z" fill="black"/>
<path d="M17.5679 60C13.9187 58.9772 11.1707 57.302 9.32376 54.9743C7.47686 52.6466 6.55786 49.5606 6.55786 45.7252V39.6414C6.55786 34.6863 4.37191 32.2175 0 32.2175V27.7825C4.37191 27.7825 6.55786 25.3137 6.55786 20.385V14.0279C6.60247 10.2983 7.52147 7.2917 9.32376 4.99927C11.1261 2.70683 13.8741 1.04041 17.5679 0L18.7457 3.518C14.4362 4.88464 12.277 8.43791 12.277 14.1866V20.3586C12.277 24.9875 10.555 28.2057 7.11104 30.022C10.555 31.856 12.277 35.1095 12.277 39.7737V46.0691C12.3395 51.6767 14.4898 55.1506 18.7457 56.4908L17.5679 60.0088V60Z" fill="black"/>
<path d="M284.219 56.4908C288.403 55.1683 290.571 51.7914 290.714 46.3689V39.6415C290.714 34.9332 292.579 31.7238 296.317 30.0133C292.588 28.338 290.714 25.1286 290.714 20.385V14.1778C290.714 8.42912 288.555 4.87585 284.246 3.50921L285.423 -0.00878906C289.072 1.01399 291.812 2.66278 293.65 4.95521C295.488 7.24764 296.415 10.2807 296.433 14.0456V20.4644C296.433 25.3314 298.619 27.7737 302.991 27.7737V32.2087C298.619 32.2087 296.433 34.6863 296.433 39.6326V45.8046C296.433 49.6312 295.497 52.6995 293.632 55.0096C291.767 57.3108 289.028 58.9772 285.423 59.9912L284.219 56.4732V56.4908Z" fill="black"/>
</g>
<defs>
<clipPath id="clip0_199_1302">
<rect width="303" height="60" fill="white"/>
</clipPath>
</defs>
</svg>
